<svg width="37" height="42" viewBox="0 0 37 42" fill="none" xmlns="http://www.w3.org/2000/svg">
<path d="M33.9419 34.8774C32.5349 31.0963 23.9295 29.2905 22.4228 28.1947C20.4882 26.7878 21.1036 22.1275 21.1036 22.1275L17.9382 22.2108L14.7725 22.1275C14.7725 22.1275 15.3882 26.7878 13.4537 28.1947C11.9469 29.2905 3.34147 31.0963 1.93456 34.8774C0.52765 38.6585 0 42 0 42H17.7624H18.114H35.8762C35.8762 42 35.3488 38.6585 33.9419 34.8774Z" fill="#A1444B"/>
<path d="M14.1863 27.3264C15.668 27.175 17.1577 26.8745 18.4479 26.1528C19.3885 25.6268 20.2353 25.0057 21.0214 24.3065C20.9747 23.109 21.1037 22.1275 21.1037 22.1275L17.9383 22.2108L14.7726 22.1275C14.7726 22.1275 15.2108 25.4444 14.1863 27.3264Z" fill="#7A3134"/>
<path d="M34.1912 34.8251C32.8208 31.142 24.6713 29.3196 22.7618 28.2051C21.2539 29.082 19.4147 29.599 17.4276 29.599C15.7013 29.599 14.0861 29.2089 12.7026 28.5317C10.0265 29.6707 3.19311 31.4808 1.94876 34.8251C0.531438 38.6339 0 42 0 42H17.893H18.2472H36.14C36.14 42 35.6086 38.6339 34.1912 34.8251Z" fill="#177DFF"/>
<path d="M12.6227 14.8622C12.1116 13.276 10.9009 13.6432 10.7875 13.6815C10.6688 13.6952 9.41731 13.8812 9.63358 15.5335C9.85103 17.1959 10.8155 18.0967 11.7198 17.832C12.6507 17.6846 13.1371 16.4577 12.6227 14.8622Z" fill="#7A3134"/>
<path d="M23.095 14.8622C23.6063 13.276 24.8168 13.6432 24.9302 13.6815C25.0489 13.6952 26.3004 13.8812 26.0844 15.5335C25.8667 17.1959 24.9022 18.0967 23.9979 17.832C23.0673 17.6846 22.5806 16.4577 23.095 14.8622Z" fill="#7A3134"/>
<path d="M24.1505 12.3668C23.5169 5.41341 18.2307 5.80287 17.7322 5.85517C17.2336 5.80287 11.9474 5.41341 11.3137 12.3668C10.6765 19.3618 13.7921 23.9301 17.7322 23.6789C21.6723 23.9301 24.788 19.3618 24.1505 12.3668Z" fill="#A1444B"/>
<path d="M18.083 18.252C18.1015 18.2046 18.1263 18.1642 18.1493 18.1218C18.1713 18.0785 18.198 18.0399 18.224 18.0009C18.2773 17.924 18.3357 17.8525 18.397 17.7839C18.4602 17.7174 18.5226 17.6502 18.5929 17.5909C18.6603 17.5289 18.7332 17.4725 18.8087 17.4191L18.777 17.5104C18.7204 17.0502 18.6681 16.5893 18.6182 16.1279C18.5747 15.6655 18.5226 15.2046 18.4876 14.7411C18.5839 15.1958 18.6629 15.653 18.7505 16.1087C18.8321 16.5656 18.9109 17.0227 18.9857 17.4806L18.9928 17.5232L18.954 17.5722C18.8962 17.6448 18.8361 17.7146 18.7706 17.7785C18.7077 17.8454 18.6372 17.9041 18.5674 17.9635C18.4957 18.0213 18.4209 18.0757 18.3411 18.1247C18.3009 18.1486 18.2609 18.1732 18.2164 18.1928C18.1729 18.2136 18.1313 18.2361 18.083 18.252Z" fill="#7A3134"/>
<path d="M14.4431 14.8458C14.4431 15.3695 14.6376 15.7942 14.8773 15.7942C15.1172 15.7942 15.3115 15.3695 15.3115 14.8458C15.3115 14.3222 15.1172 13.8975 14.8773 13.8975C14.6376 13.8975 14.4431 14.3222 14.4431 14.8458Z" fill="#29202E"/>
<path d="M20.4092 14.8458C20.4092 15.3695 20.6037 15.7942 20.8434 15.7942C21.0833 15.7942 21.2776 15.3695 21.2776 14.8458C21.2776 14.3222 21.0833 13.8975 20.8434 13.8975C20.6037 13.8975 20.4092 14.3222 20.4092 14.8458Z" fill="#29202E"/>
<path d="M13.3774 13.2942C13.3774 13.2942 13.4529 13.067 13.6876 12.8032C13.7494 12.7415 13.8112 12.666 13.8928 12.6045C13.9704 12.5377 14.0589 12.4741 14.1585 12.418C14.2531 12.3548 14.3689 12.3156 14.481 12.2685C14.601 12.2394 14.7207 12.1965 14.8501 12.1937C14.914 12.1904 14.9779 12.1857 15.0415 12.1849C15.1052 12.1909 15.1686 12.2006 15.2311 12.2091C15.3581 12.2174 15.4712 12.2756 15.5822 12.3137C15.6932 12.3546 15.7814 12.4287 15.8706 12.4831C15.9622 12.5361 16.0204 12.6201 16.085 12.6809C16.1472 12.7443 16.2024 12.803 16.2372 12.8673C16.2767 12.927 16.3065 12.9821 16.3313 13.0263C16.3798 13.1155 16.4026 13.1681 16.4026 13.1681C16.4026 13.1681 16.3472 13.143 16.2594 13.0964C16.2161 13.0725 16.1631 13.045 16.1075 13.01C16.0535 12.9724 15.9816 12.9476 15.9116 12.9125C15.838 12.8844 15.7694 12.834 15.6847 12.8139C15.6014 12.7921 15.5221 12.7493 15.4339 12.7353C15.3451 12.7244 15.2599 12.6901 15.1679 12.6941C15.1227 12.6915 15.0775 12.6901 15.0321 12.6847L14.8946 12.6958C14.8021 12.6922 14.7115 12.7275 14.619 12.737C14.5298 12.7684 14.4361 12.7826 14.3502 12.8205C14.2621 12.8512 14.1767 12.8851 14.0965 12.9229C14.0135 12.9556 13.9394 12.9982 13.8653 13.0299C13.7936 13.068 13.7279 13.1025 13.6697 13.1333C13.6103 13.1659 13.5584 13.1943 13.5156 13.2178C13.4278 13.2665 13.3774 13.2942 13.3774 13.2942Z" fill="#29202E"/>
<path d="M19.3856 13.2942C19.3856 13.2942 19.4609 13.067 19.6956 12.8032C19.7576 12.7415 19.8193 12.666 19.901 12.6045C19.9786 12.5377 20.0671 12.4741 20.1667 12.418C20.2613 12.3548 20.3768 12.3156 20.489 12.2685C20.6092 12.2394 20.7286 12.1965 20.8581 12.1937C20.9222 12.1904 20.9861 12.1857 21.0495 12.1849C21.1134 12.1909 21.1766 12.2006 21.239 12.2091C21.3663 12.2174 21.4792 12.2756 21.5904 12.3137C21.7011 12.3546 21.7894 12.4287 21.8786 12.4831C21.9702 12.5361 22.0284 12.6201 22.093 12.6809C22.1554 12.7443 22.2106 12.803 22.2453 12.8673C22.2846 12.927 22.3144 12.9821 22.3393 13.0263C22.388 13.1155 22.4105 13.1681 22.4105 13.1681C22.4105 13.1681 22.3554 13.143 22.2676 13.0964C22.2243 13.0725 22.1713 13.045 22.1157 13.01C22.0615 12.9724 21.9898 12.9476 21.9198 12.9125C21.8459 12.8844 21.7773 12.834 21.6926 12.8139C21.6096 12.7921 21.5303 12.7493 21.4418 12.7353C21.3533 12.7244 21.2679 12.6901 21.1761 12.6941C21.1306 12.6915 21.0855 12.6901 21.0403 12.6847L20.9028 12.6958C20.8103 12.6922 20.7194 12.7275 20.6269 12.737C20.5377 12.7684 20.4442 12.7826 20.3583 12.8205C20.2701 12.8512 20.1849 12.8851 20.1045 12.9229C20.0216 12.9556 19.9476 12.9982 19.8735 13.0299C19.8016 13.068 19.736 13.1025 19.6776 13.1333C19.6182 13.1659 19.5664 13.1943 19.5238 13.2178C19.4358 13.2665 19.3856 13.2942 19.3856 13.2942Z" fill="#29202E"/>
<path d="M15.0853 19.2656L20.9446 19.2095C20.9446 19.2095 18.3979 21.5726 15.0853 19.2656Z" fill="white"/>
<path d="M10.9446 8.38147C10.9446 8.38147 10.5896 17.0771 11.5952 21.1586C12.3522 24.2306 14.5529 25.0628 14.5529 25.0628C14.5529 25.0628 19.7584 27.074 22.657 23.8206C23.4917 22.8836 24.7865 17.9644 24.195 9.15047L22.0654 8.26316C22.0654 8.26316 22.4204 12.5814 23.4851 13.1138C23.4851 13.1138 23.1721 20.8312 21.8288 21.7502C20.7049 22.5192 22.5978 18.201 20.4091 18.2601C18.2204 18.3193 18.1613 18.3784 18.1613 18.3784C18.1613 18.3784 14.2572 17.7277 14.3163 19.2657C14.3755 20.8037 14.7895 21.8093 14.2572 21.8093C13.7248 21.8093 11.7727 20.5671 12.1276 12.4631C12.1276 12.4631 13.2516 12.049 13.2516 9.20962C13.2516 5.47537 10.9446 8.38147 10.9446 8.38147Z" fill="#29202E"/>
<path d="M13.015 7.90811C13.015 7.90811 14.7167 10.2151 16.7417 10.2151C17.8656 10.2151 16.7417 8.26304 16.7417 8.26304C16.7417 8.26304 18.3388 10.7475 19.9951 10.6883C21.6514 10.6292 20.2317 8.26304 20.2317 8.26304C20.2317 8.26304 21.474 10.8066 23.012 10.6883C24.55 10.57 23.2486 8.08558 23.2486 8.08558C23.2486 8.08558 23.9584 10.7475 25.4373 10.3926C26.9161 10.0376 25.0823 7.73065 25.0823 7.73065C25.0823 7.73065 26.3246 8.91373 26.8569 8.85457C27.3893 8.79542 27.3893 7.19827 25.5556 6.42927C25.5556 6.42927 27.3893 6.37012 27.4485 5.48282C27.5154 4.47744 26.3246 4.12228 23.6035 4.41805C23.6035 4.41805 25.8513 3.4716 25.3781 2.64345C24.9049 1.8153 22.8937 2.99837 22.8937 2.99837C22.8937 2.99837 24.9049 1.87445 23.7218 0.987144C22.7507 0.258846 17.6881 0.277302 14.6122 3.94482C14.6122 3.94482 21.0007 0.57307 20.2317 0.0998411C19.6887 -0.234495 12.0463 1.47315 10.8855 4.71382C9.4658 8.67711 10.5306 10.9249 10.9896 13.6235L13.015 7.90811Z" fill="#29202E"/>
</svg>
