<svg width="21" height="22" viewBox="0 0 21 22" fill="none" xmlns="http://www.w3.org/2000/svg">
<path fill-rule="evenodd" clip-rule="evenodd" d="M14.5137 20.4998H6.16592C3.09955 20.4998 0.747152 19.3922 1.41534 14.9346L2.19338 8.89339C2.60528 6.66913 4.02404 5.81787 5.26889 5.81787H15.4474C16.7105 5.81787 18.0469 6.7332 18.5229 8.89339L19.3009 14.9346C19.8684 18.8888 17.5801 20.4998 14.5137 20.4998Z" stroke="#BAC2CC" stroke-width="1.5" stroke-linecap="round" stroke-linejoin="round"/>
<path d="M14.651 5.59824C14.651 3.21216 12.7167 1.27787 10.3307 1.27787V1.27787C9.18168 1.273 8.07807 1.72603 7.26388 2.53679C6.44969 3.34754 5.99199 4.44923 5.992 5.59824H5.992" stroke="#BAC2CC" stroke-width="1.5" stroke-linecap="round" stroke-linejoin="round"/>
<path d="M13.2963 10.1017H13.2506" stroke="#BAC2CC" stroke-width="1.5" stroke-linecap="round" stroke-linejoin="round"/>
<path d="M7.46572 10.1017H7.41995" stroke="#BAC2CC" stroke-width="1.5" stroke-linecap="round" stroke-linejoin="round"/>
</svg>
