<svg width="25" height="24" viewBox="0 0 25 24" fill="none" xmlns="http://www.w3.org/2000/svg">
<path d="M16.1666 15.75C15.9866 15.75 15.7866 15.74 15.5966 15.73C15.2266 15.71 14.9266 15.41 14.8966 15.04C14.6766 12.25 12.4066 9.98999 9.62662 9.76999C9.25662 9.73999 8.95661 9.44001 8.93661 9.07001C8.92661 8.88001 8.91663 8.69 8.91663 8.5C8.91663 4.5 12.1666 1.25 16.1666 1.25C20.1666 1.25 23.4166 4.5 23.4166 8.5C23.4166 12.5 20.1666 15.75 16.1666 15.75ZM10.4166 8.35999C13.3966 8.87999 15.7866 11.27 16.3066 14.25C19.4166 14.17 21.9166 11.63 21.9166 8.5C21.9166 5.33 19.3366 2.75 16.1666 2.75C13.0466 2.75 10.4966 5.24999 10.4166 8.35999Z" fill="#BAC2CC"/>
<path d="M9.16663 22.75C5.16663 22.75 1.91663 19.5 1.91663 15.5C1.91663 11.5 5.16663 8.25 9.16663 8.25C9.34663 8.25 9.54663 8.25999 9.73663 8.26999C13.2666 8.54999 16.1266 11.41 16.3966 14.92C16.4066 15.12 16.4166 15.31 16.4166 15.5C16.4166 19.5 13.1666 22.75 9.16663 22.75ZM9.16663 9.75C5.99663 9.75 3.41663 12.33 3.41663 15.5C3.41663 18.67 5.99663 21.25 9.16663 21.25C12.3366 21.25 14.9166 18.67 14.9166 15.5C14.9166 15.34 14.9066 15.18 14.8966 15.03C14.6766 12.26 12.4166 9.98999 9.62662 9.76999C9.48662 9.75999 9.32663 9.75 9.16663 9.75Z" fill="#BAC2CC"/>
<path d="M3.66663 7.34C3.43663 7.34 3.21661 7.29999 2.99661 7.20999C2.33661 6.93999 1.91663 6.3 1.91663 5.59V3C1.91663 2.04 2.70663 1.25 3.66663 1.25H6.25662C6.96662 1.25 7.59662 1.66999 7.87662 2.32999C8.14662 2.98999 7.99661 3.73999 7.49661 4.23999L4.90662 6.82999C4.56662 7.15999 4.12663 7.34 3.66663 7.34ZM3.66663 2.75C3.52663 2.75 3.41663 2.86 3.41663 3V5.59C3.41663 5.74 3.51662 5.80001 3.56662 5.82001C3.62662 5.84001 3.73664 5.86999 3.83664 5.76999L6.42664 3.17999C6.52664 3.07999 6.50662 2.97 6.47662 2.91C6.44662 2.85 6.38661 2.76001 6.24661 2.76001H3.66663V2.75Z" fill="#BAC2CC"/>
<path d="M21.6664 22.7498H19.0764C18.3664 22.7498 17.7365 22.3298 17.4565 21.6698C17.1865 21.0098 17.3365 20.2598 17.8365 19.7598L20.4265 17.1698C20.9265 16.6698 21.6765 16.5198 22.3365 16.7898C22.9965 17.0598 23.4164 17.6998 23.4164 18.4098V20.9998C23.4164 21.9598 22.6264 22.7498 21.6664 22.7498ZM21.6564 18.1598C21.6064 18.1598 21.5465 18.1798 21.4865 18.2398L18.8965 20.8298C18.7965 20.9298 18.8164 21.0398 18.8464 21.0998C18.8764 21.1598 18.9364 21.2498 19.0764 21.2498H21.6664C21.8064 21.2498 21.9164 21.1398 21.9164 20.9998V18.4098C21.9164 18.2598 21.8165 18.1998 21.7665 18.1798C21.7365 18.1698 21.6964 18.1598 21.6564 18.1598Z" fill="#BAC2CC"/>
</svg>
